<?xml version="1.0" encoding="UTF-8"?>
<svg xmlns="http://www.w3.org/2000/svg" xmlns:xlink="http://www.w3.org/1999/xlink" width="28px" height="31px" viewBox="0 0 28 31" version="1.1">
<g id="surface1">
<path style=" stroke:none;fill-rule:nonzero;fill:rgb(0%,0%,0%);fill-opacity:1;" d="M 416 176 C 416 273.199219 322.898438 352 208 352 C 169.800781 352 134.101562 343.300781 103.300781 328.101562 C 95.800781 332.101562 87.300781 336 78.101562 339.5 C 59.800781 346.398438 37.800781 352 16 352 C 9.101562 352 2.898438 347.5 0.800781 340.898438 C -1.300781 334.300781 1 327.101562 6.601562 323 L 6.800781 322.800781 C 7 322.601562 7.398438 322.398438 7.898438 322 C 8.898438 321.199219 10.398438 320 12.199219 318.300781 C 15.800781 315 20.699219 310.199219 25.5 304 C 31 297 36.199219 288.601562 39.699219 279.300781 C 14.699219 250.300781 0 214.601562 0 176 C 0 78.800781 93.101562 0 208 0 C 322.898438 0 416 78.800781 416 176 Z M 231.5 383 C 348.898438 372.898438 448 288.300781 448 176 C 448 170.800781 447.800781 165.601562 447.398438 160.5 C 555.101562 167.101562 640 243.199219 640 336 C 640 374.601562 625.300781 410.300781 600.398438 439.398438 C 603.898438 448.800781 609.101562 457.101562 614.601562 464.101562 C 619.398438 470.300781 624.300781 475.101562 627.898438 478.398438 C 629.699219 480 631.199219 481.300781 632.199219 482.101562 C 632.699219 482.5 633.101562 482.800781 633.300781 482.898438 L 633.5 483.101562 C 639.101562 487.199219 641.398438 494.398438 639.300781 501 C 637.199219 507.601562 631 512.101562 624.101562 512.101562 C 602.300781 512.101562 580.300781 506.5 562 499.601562 C 552.800781 496.101562 544.199219 492.199219 536.800781 488.199219 C 505.898438 503.300781 470.199219 512 432 512 C 336.398438 512 255.800781 457.398438 231.5 383 Z M 228 72 C 228 61 219 52 208 52 C 197 52 188 61 188 72 L 188 86 C 180.398438 87.699219 172.800781 90.398438 165.800781 94.5 C 151.898438 102.800781 139.898438 117.300781 140 138.398438 C 140.101562 158.699219 152 171.5 164.699219 179.101562 C 175.699219 185.699219 189.398438 189.898438 200.300781 193.101562 L 202 193.601562 C 214.601562 197.398438 223.800781 200.398438 230 204.300781 C 235.101562 207.5 235.800781 209.699219 235.898438 212.5 C 236 217.5 234.101562 220.5 230 223 C 225 226.101562 217.101562 228 208.601562 227.699219 C 197.5 227.300781 187.101562 223.800781 173.5 219.199219 C 171.199219 218.398438 168.800781 217.601562 166.300781 216.800781 C 155.800781 213.300781 144.5 219 141 229.398438 C 137.5 239.800781 143.199219 251.199219 153.601562 254.699219 C 155.5 255.300781 157.601562 256 159.699219 256.800781 C 168 259.699219 177.601562 263 187.898438 265.199219 L 187.898438 280 C 187.898438 291 196.898438 300 207.898438 300 C 218.898438 300 227.898438 291 227.898438 280 L 227.898438 266.199219 C 235.898438 264.5 243.898438 261.699219 251.101562 257.199219 C 265.398438 248.300781 276.199219 233.101562 275.898438 212.199219 C 275.601562 191.898438 264.199219 178.800781 251.300781 170.601562 C 239.800781 163.398438 225.398438 159 214.199219 155.601562 L 213.5 155.398438 C 200.699219 151.5 191.601562 148.699219 185.199219 144.898438 C 180 141.800781 179.898438 140 179.898438 138.199219 C 179.898438 134.5 181.300781 131.699219 186.101562 128.898438 C 191.5 125.699219 199.699219 123.800781 207.601562 123.898438 C 217.199219 124 227.800781 126.101562 238.800781 129.101562 C 249.5 131.898438 260.398438 125.601562 263.300781 114.898438 C 266.199219 104.199219 259.800781 93.300781 249.101562 90.398438 C 242.601562 88.699219 235.398438 87 228 85.699219 Z M 228 72 "/>
</g>
</svg>
