<?xml version="1.0" encoding="UTF-8"?>
<svg xmlns="http://www.w3.org/2000/svg" xmlns:xlink="http://www.w3.org/1999/xlink" width="28px" height="31px" viewBox="0 0 28 31" version="1.1">
<g id="surface1">
<path style=" stroke:none;fill-rule:nonzero;fill:rgb(0%,0%,0%);fill-opacity:1;" d="M 495.898438 166.601562 C 499.101562 175.300781 496.398438 185 489.5 191.199219 L 446.199219 230.601562 C 447.300781 238.898438 447.898438 247.398438 447.898438 256 C 447.898438 264.601562 447.300781 273.101562 446.199219 281.398438 L 489.5 320.800781 C 496.398438 327 499.101562 336.699219 495.898438 345.398438 C 491.5 357.300781 486.199219 368.699219 480.101562 379.699219 L 475.398438 387.800781 C 468.800781 398.800781 461.398438 409.199219 453.300781 419 C 447.398438 426.199219 437.601562 428.601562 428.800781 425.800781 L 373.101562 408.101562 C 359.699219 418.398438 344.898438 427 329.101562 433.5 L 316.601562 490.601562 C 314.601562 499.699219 307.601562 506.898438 298.398438 508.398438 C 284.601562 510.699219 270.398438 511.898438 255.898438 511.898438 C 241.398438 511.898438 227.199219 510.699219 213.398438 508.398438 C 204.199219 506.898438 197.199219 499.699219 195.199219 490.601562 L 182.699219 433.5 C 166.898438 427 152.101562 418.398438 138.699219 408.101562 L 83.101562 425.898438 C 74.300781 428.699219 64.5 426.199219 58.601562 419.101562 C 50.5 409.300781 43.101562 398.898438 36.5 387.898438 L 31.800781 379.800781 C 25.699219 368.800781 20.398438 357.398438 16 345.5 C 12.800781 336.800781 15.5 327.101562 22.398438 320.898438 L 65.699219 281.5 C 64.601562 273.101562 64 264.601562 64 256 C 64 247.398438 64.601562 238.898438 65.699219 230.601562 L 22.398438 191.199219 C 15.5 185 12.800781 175.300781 16 166.601562 C 20.398438 154.699219 25.699219 143.300781 31.800781 132.300781 L 36.5 124.199219 C 43.101562 113.199219 50.5 102.800781 58.601562 93 C 64.5 85.800781 74.300781 83.398438 83.101562 86.199219 L 138.800781 103.898438 C 152.199219 93.601562 167 85 182.800781 78.5 L 195.300781 21.398438 C 197.300781 12.300781 204.300781 5.101562 213.5 3.601562 C 227.300781 1.199219 241.5 0 256 0 C 270.5 0 284.699219 1.199219 298.5 3.5 C 307.699219 5 314.699219 12.199219 316.699219 21.300781 L 329.199219 78.398438 C 345 84.898438 359.800781 93.5 373.199219 103.800781 L 428.898438 86.101562 C 437.699219 83.300781 447.5 85.800781 453.398438 92.898438 C 461.5 102.699219 468.898438 113.101562 475.5 124.101562 L 480.199219 132.199219 C 486.300781 143.199219 491.601562 154.601562 496 166.5 Z M 256 336 C 300.199219 336 336 300.199219 336 256 C 336 211.800781 300.199219 176 256 176 C 211.800781 176 176 211.800781 176 256 C 176 300.199219 211.800781 336 256 336 Z M 256 336 "/>
</g>
</svg>
